<?xml version="1.0" encoding="utf-8"?>
<!-- Generator: Adobe Illustrator 22.0.1, SVG Export Plug-In . SVG Version: 6.00 Build 0)  -->
<svg version="1.1" id="Слой_1" xmlns="http://www.w3.org/2000/svg" xmlns:xlink="http://www.w3.org/1999/xlink" x="0px" y="0px"
	 viewBox="0 0 229 67" style="enable-background:new 0 0 229 67;" xml:space="preserve">
<style type="text/css">
	.st0{enable-background:new    ;}
</style>
<g class="st0">
	<path d="M42.5,14.7V66c-6-6.4-12-12.7-18-19c-5.9-6.3-11.9-12.7-17.9-19c-0.2-0.3-0.5-0.6-0.7-0.9s-0.4-0.6-0.7-0.9
		c0,0.4,0.1,0.7,0.1,1.1s0.1,0.7,0.1,1.1v35.5h-5.8V12.6c6,6.5,12,13,17.9,19.4c6,6.4,12,12.9,18,19.4c0.2,0.3,0.5,0.6,0.7,0.9
		c0.2,0.3,0.4,0.6,0.7,0.9c0-0.4-0.1-0.7-0.1-1.1c0-0.4-0.1-0.7-0.1-1.1V14.7L42.5,14.7z"/>
	<path d="M54,39.3c0-3.4,0.7-6.6,2-9.7c1.3-3.1,3.1-5.7,5.4-8s4.9-4.1,8-5.4c3-1.3,6.3-2,9.7-2c3.4,0,6.6,0.7,9.7,2s5.7,3.1,8,5.4
		s4.1,5,5.4,8c1.3,3.1,2,6.3,2,9.7c0,3.5-0.7,6.7-2,9.7s-3.1,5.7-5.4,8s-5,4.1-8,5.4c-3.1,1.3-6.3,2-9.7,2c-3.5,0-6.7-0.6-9.7-1.9
		c-3-1.3-5.7-3.1-8-5.4c-2.3-2.3-4.1-4.9-5.4-8C54.6,46,54,42.8,54,39.3z M59.8,39.3c0,2.7,0.5,5.2,1.5,7.6c1,2.4,2.4,4.4,4.1,6.2
		s3.8,3.1,6.1,4.2c2.3,1,4.8,1.5,7.5,1.5s5.2-0.5,7.5-1.6c2.3-1,4.4-2.4,6.1-4.2c1.8-1.8,3.1-3.8,4.1-6.2s1.5-4.9,1.5-7.6
		c0-2.7-0.5-5.2-1.5-7.6s-2.4-4.4-4.1-6.2c-1.8-1.8-3.8-3.2-6.1-4.2c-2.3-1-4.8-1.5-7.5-1.5s-5.2,0.5-7.5,1.6
		c-2.3,1-4.4,2.4-6.1,4.2c-1.8,1.8-3.1,3.9-4.1,6.2C60.3,34.1,59.8,36.6,59.8,39.3z"/>
	<path d="M113.3,63.7V14.6h30.2v5.5h-24.4v16.1h21.6v5.5h-21.6v16.4h25.4v5.5L113.3,63.7z M126.9,11.1c1.1-1.5,2.1-3.1,3.2-4.7
		c1-1.6,2.1-3.1,3.2-4.7h5.9c-1.4,1.5-2.7,3.1-4,4.7s-2.7,3.1-4,4.7H126.9z"/>
	<path d="M157.6,12.3c4.3,5.6,8.6,11.1,12.8,16.6s8.5,11.1,12.8,16.6c4.3-5.6,8.6-11.1,12.8-16.7c4.2-5.5,8.5-11.1,12.8-16.7v51.3
		H203v-33c0-0.4,0.1-0.7,0.1-1.1s0.1-0.7,0.1-1.1c-3.1,4.6-6.3,9-9.8,13.4c-3.5,4.3-6.9,8.7-10.2,13.1c-3.1-4.1-6.3-8.2-9.4-12.3
		c-3.1-4.1-6.3-8.1-9.4-12.3l-1.3-1.9c0,0.4,0.1,0.7,0.1,1.1s0.1,0.7,0.1,1.1v33h-5.8L157.6,12.3z"/>
	<path d="M223.2,14.5h5.8v49.1h-5.8V14.5z"/>
</g>
</svg>
